<svg width="64" height="64" viewBox="0 0 64 64" fill="none" xmlns="http://www.w3.org/2000/svg">
  <defs>
    <linearGradient id="pin" x1="18" y1="8" x2="47" y2="54" gradientUnits="userSpaceOnUse">
      <stop stop-color="#13A3AF"/>
      <stop offset="0.52" stop-color="#1D7FA1"/>
      <stop offset="1" stop-color="#F09A3E"/>
    </linearGradient>
    <linearGradient id="needle" x1="27" y1="18" x2="38" y2="34" gradientUnits="userSpaceOnUse">
      <stop stop-color="#102A43"/>
      <stop offset="1" stop-color="#0F7D88"/>
    </linearGradient>
  </defs>

  <path
    d="M32 6C21.8 6 13.5 14.3 13.5 24.5C13.5 38.6 27.6 51.1 30.5 53.4C31.4 54.2 32.6 54.2 33.5 53.4C36.4 51.1 50.5 38.6 50.5 24.5C50.5 14.3 42.2 6 32 6Z"
    fill="url(#pin)"
  />
  <circle cx="32" cy="24.5" r="10" fill="white"/>
  <path d="M32 16.5L36.2 24.8L32 33L27.8 24.8L32 16.5Z" fill="url(#needle)"/>
  <path
    d="M22.2 44.6C25.6 41.8 29.3 40.4 33.1 40.4C37.1 40.4 40.9 41.7 44.5 44"
    stroke="white"
    stroke-width="3.6"
    stroke-linecap="round"
  />
  <circle cx="44.8" cy="44.1" r="3.6" fill="white"/>
</svg>
